{"title":"The Slumber Party Massacre (1982) 720p fiveofseven zombiRG","uid":11454048,"size":1133187361,"categoryP":"video","categoryS":"hd___movies","magnet":"?xt=urn:btih:37d7d0082ce1275a06a0f5e4184f49a52ef9ab41&amp;dn=The+Slumber+Party+Massacre+%281982%29+720p+fiveofseven+zombiRG&amp;tr=udp%3A%2F%2Ftracker.openbittorrent.com%3A80&amp;tr=udp%3A%2F%2Fopen.demonii.com%3A1337&amp;tr=udp%3A%2F%2Ftracker.coppersurfer.tk%3A6969&amp;tr=udp%3A%2F%2Fexodus.desync.com%3A6969","seeders":7,"leechers":3,"uploader":"fiveofseven","files":-1,"time":1415917715,"description":"AAC 2.0 Track 1 &amp; Commentary Track 2\n\n\nPLOT - An eighteen-year-old high school girl is left at home by her parents \nand she decides to have a slumber party. There is friction between some of \nthe invited guests and the new girl, who is better at basketball than they, \nso the new girl decides to stay at home (which is conveniently across the \nstreet from the host's house). Meanwhile, a murderer of five people with \na propensity for power tools has escaped and is at large, and eventually \nmakes his way to the party, where the guests begin experiencing \nan attrition problem, with only the new girl to help them. \n\n\nGeneral\nComplete name                            : C:uTorrentThe Slumber Party Massacre 720p(fiveofseven zombiRG)The Slumber Party Massacre 720p fiveofseven zombiRG.mp4\nFormat                                   : MPEG-4\nFormat profile                           : Base Media\nCodec ID                                 : isom\nFile size                                : 1.04 GiB\nDuration                                 : 1h 16mn\nOverall bit rate mode                    : Variable\nOverall bit rate                         : 1 960 Kbps\nEncoded date                             : UTC 2014-10-27 18:32:18\nTagged date                              : UTC 2014-10-27 18:32:18\nWriting application                      : My MP4Box GUI 0.6.0.6 &lt;http://my-mp4box-gui.zymichost.com&gt;\n\nVideo\nID                                       : 1\nFormat                                   : AVC\nFormat/Info                              : Advanced Video Codec\nFormat profile                           : &lt;a class=&quot;__cf_email__&quot; href=&quot;/cdn-cgi/l/email-protection&quot; data-cfemail=&quot;b2fadbd5daf2fe819c83&quot;&gt;[email&amp;#160;protected]&lt;/a&gt;&lt;script cf-hash='f9e31' type=&quot;text/javascript&quot;&gt;\n/* &lt;![CDATA[ */!function(){try{var t=&quot;currentScript&quot;in document?document.currentScript:function(){for(var t=document.getElementsByTagName(&quot;script&quot;),e=t.length;e--;)if(t[e].getAttribute(&quot;cf-hash&quot;))return t[e]}();if(t&amp;&amp;t.previousSibling){var e,r,n,i,c=t.previousSibling,a=c.getAttribute(&quot;data-cfemail&quot;);if(a){for(e=&quot;&quot;,r=parseInt(a.substr(0,2),16),n=2;a.length-n;n+=2)i=parseInt(a.substr(n,2),16)^r,e+=String.fromCharCode(i);e=document.createTextNode(e),c.parentNode.replaceChild(e,c)}}}catch(u){}}();/* ]]&gt; */&lt;/script&gt;\nFormat settings, CABAC                   : Yes\nFormat settings, ReFrames                : 4 frames\nFormat settings, GOP                     : M=1, N=2\nCodec ID                                 : avc1\nCodec ID/Info                            : Advanced Video Coding\nDuration                                 : 1h 16mn\nBit rate                                 : 1 700 Kbps\nMaximum bit rate                         : 6 982 Kbps\nWidth                                    : 1 280 pixels\nHeight                                   : 720 pixels\nDisplay aspect ratio                     : 16:9\nFrame rate mode                          : Constant\nFrame rate                               : 23.976 fps\nColor space                              : YUV\nChroma subsampling                       : 4:2:0\nBit depth                                : 8 bits\nScan type                                : Progressive\nBits/(Pixel*Frame)                       : 0.077\nStream size                              : 927 MiB (87%)\nTitle                                    : SPM.mp4\nWriting library                          : x264 core 133 r2334 a3ac64b\nEncoding settings                        : nope\nLanguage                                 : English\nEncoded date                             : UTC 2014-10-23 06:44:39\nTagged date                              : UTC 2014-10-27 18:34:04\n\nAudio #1\nID                                       : 2\nFormat                                   : AAC\nFormat/Info                              : Advanced Audio Codec\nFormat profile                           : LC\nCodec ID                                 : 40\nDuration                                 : 1h 16mn\nBit rate mode                            : Variable\nBit rate                                 : 128 Kbps\nMaximum bit rate                         : 131 Kbps\nChannel count                            : 2 channels\nChannel positions                        : Front: L R\nSampling rate                            : 48.0 KHz\nCompression mode                         : Lossy\nDelay relative to video                  : 83ms\nStream size                              : 69.8 MiB (7%)\nTitle                                    : track 1.mp4\nLanguage                                 : English\nEncoded date                             : UTC 2014-10-27 18:33:55\nTagged date                              : UTC 2014-10-27 18:34:04\n\nAudio #2\nID                                       : 3\nFormat                                   : AAC\nFormat/Info                              : Advanced Audio Codec\nFormat profile                           : LC\nCodec ID                                 : 40\nDuration                                 : 1h 16mn\nBit rate mode                            : Variable\nBit rate                                 : 128 Kbps\nMaximum bit rate                         : 133 Kbps\nChannel count                            : 2 channels\nChannel positions                        : Front: L R\nSampling rate                            : 48.0 KHz\nCompression mode                         : Lossy\nDelay relative to video                  : 83ms\nStream size                              : 69.8 MiB (7%)\nTitle                                    : track 2 comm.mp4\nLanguage                                 : English\nEncoded date                             : UTC 2014-10-27 18:33:59\nTagged date                              : UTC 2014-10-27 18:34:04\n\n\nScreenshots - \n  &lt;a href=&quot;\nhttp://image.bayimg.com/4f5e2b02d4c4fc55514d8edc7b5cc5efcc767414.jpg&quot; rel=&quot;nofollow&quot; target=&quot;_NEW&quot;&gt;\nhttp://image.bayimg.com/4f5e2b02d4c4fc55514d8edc7b5cc5efcc767414.jpg&lt;/a&gt; \n  &lt;a href=&quot;\nhttp://image.bayimg.com/32ce878c3af80b47311e3663b3de4677397bc0cf.jpg&quot; rel=&quot;nofollow&quot; target=&quot;_NEW&quot;&gt;\nhttp://image.bayimg.com/32ce878c3af80b47311e3663b3de4677397bc0cf.jpg&lt;/a&gt; \n  &lt;a href=&quot;\nhttp://image.bayimg.com/ef183a980d58771da65ad458d3b7968bfa3f89c6.jpg&quot; rel=&quot;nofollow&quot; target=&quot;_NEW&quot;&gt;\nhttp://image.bayimg.com/ef183a980d58771da65ad458d3b7968bfa3f89c6.jpg&lt;/a&gt; \n  &lt;a href=&quot;\nhttp://image.bayimg.com/193e3bbe69edcdcb5ae30bce9c75c7a2c4f8592a.jpg&quot; rel=&quot;nofollow&quot; target=&quot;_NEW&quot;&gt;\nhttp://image.bayimg.com/193e3bbe69edcdcb5ae30bce9c75c7a2c4f8592a.jpg&lt;/a&gt; \n \nsignature \n  &lt;a href=&quot;\nhttp://image.bayimg.com/c8522bcf3521d834bcfb712accfc58a8c9f6d9fb.jpg&quot; rel=&quot;nofollow&quot; target=&quot;_NEW&quot;&gt;\nhttp://image.bayimg.com/c8522bcf3521d834bcfb712accfc58a8c9f6d9fb.jpg&lt;/a&gt;","torrent":{"xt":"urn:btih:37d7d0082ce1275a06a0f5e4184f49a52ef9ab41","amp;dn":"The+Slumber+Party+Massacre+%281982%29+720p+fiveofseven+zombiRG","amp;tr":["udp%3A%2F%2Ftracker.openbittorrent.com%3A80","udp%3A%2F%2Fopen.demonii.com%3A1337","udp%3A%2F%2Ftracker.coppersurfer.tk%3A6969","udp%3A%2F%2Fexodus.desync.com%3A6969"],"infoHash":"37d7d0082ce1275a06a0f5e4184f49a52ef9ab41","infoHashBuffer":{"type":"Buffer","data":[55,215,208,8,44,225,39,90,6,160,245,228,24,79,73,165,46,249,171,65]},"announce":[],"urlList":[]}}